<?xml version="1.0" encoding="UTF-8"?> <!-- Generator: Adobe Illustrator 24.0.1, SVG Export Plug-In . SVG Version: 6.00 Build 0) --> <svg xmlns="http://www.w3.org/2000/svg" xmlns:xlink="http://www.w3.org/1999/xlink" version="1.1" id="Layer_1" x="0px" y="0px" viewBox="0 0 257 63" style="enable-background:new 0 0 257 63;" xml:space="preserve"> <style type="text/css"> .st0{fill:#FFFFFF;} .st1{fill:#95C11F;} </style> <g> <g> <polygon class="st0" points="95.9,17.2 104.9,17.2 104.9,41.5 111.4,41.5 111.4,17.2 120.4,17.2 120.4,10.7 95.9,10.7 "></polygon> <polygon class="st0" points="155.8,10.7 155.7,10.7 155.7,35 155.7,41.5 162.2,41.5 178.4,41.5 178.4,35 162.2,35 162.2,29.3 178.4,29.3 178.4,22.8 162.2,22.8 162.2,17.2 178.4,17.2 178.4,10.7 162.2,10.7 "></polygon> <polygon class="st0" points="243.5,10.7 237.1,30.6 230.7,10.7 217.8,10.7 217.8,41.5 224.3,41.5 224.3,17.2 226,17.2 233.7,41.5 240.4,41.5 248.2,17.2 249.9,17.2 249.9,41.5 256.4,41.5 256.4,10.7 "></polygon> <path class="st0" d="M191.7,10.7l-9.9,30.9h6.9l1.4-4.4h16l1.4,4.4h6.8l-9.9-30.9H191.7z M204,30.7h-11.8l4.3-13.4h3.2L204,30.7z"></path> <path class="st0" d="M151.3,22.5c0-6.6-4.2-11.8-9.5-11.8h-17.1v30.9h6.5v-7.2h8.7l3.9,7.2h7.4l-4.7-8.7 C149.5,30.8,151.3,26.8,151.3,22.5z M131.2,17.2h10.6c1.4,0,3,2.3,3,5.3s-1.6,5.3-3,5.3h-10.6V17.2z"></path> <path class="st0" d="M87.6,22.5l-12.5,0c-0.3,0-1.1-0.9-1.1-2.6c0-1.7,0.9-2.6,1.1-2.6h13.7l2.9-6.5H75.1c-4.3,0-7.7,4-7.7,9.2 c0,5.1,3.4,9.2,7.7,9.2h12.5c0.5,0,1.6,1.3,1.6,3.5c0,2.2-1.1,3.5-1.6,3.5H73.9c-0.5,0-1.6-1.3-1.6-3.5v-0.2h-6.5v0.2 c0,5.6,3.6,10,8.1,10h13.7c4.6,0,8.2-4.4,8.2-10C95.7,26.9,92.1,22.5,87.6,22.5z"></path> </g> <g> <path class="st1" d="M23.7,24v9c0,0.7-2.9,3-8.3,3C10,36,7,33.8,7,33.1V10.7H0.5v22.4c0,5.4,6.4,9.5,14.8,9.5 c8.5,0,14.8-4.1,14.8-9.5V-0.1L18.8,25.4L23.7,24z"></path> <path class="st1" d="M52.5,10.7H35.3v30.9h6.5v-7.2h10.6c5.3,0,9.5-5.2,9.5-11.8C62,15.9,57.8,10.7,52.5,10.7z M52.5,27.8H41.9 V17.2h10.6c1.4,0,3,2.3,3,5.3S53.8,27.8,52.5,27.8z"></path> </g> <g> <g> <path class="st1" d="M163.6,50.1h-1.9c-0.6,0-1,0.1-1.2,0.3c-0.2,0.2-0.4,0.6-0.4,1.1V53h2.9v1.5h-2.9v8h-1.9v-8h-1.7v-1.4 l1.7-0.1v-1.7c0-0.9,0.2-1.6,0.7-2.1c0.4-0.5,1.2-0.7,2.2-0.7c1.2,0,2.1,0,2.7,0.1L163.6,50.1z"></path> <path class="st1" d="M165,54.5l-0.2-1.4c1.7-0.3,3.2-0.4,4.6-0.4c1.2,0,2,0.2,2.5,0.7c0.5,0.5,0.8,1.3,0.8,2.4v6.6h-1.5l-0.2-1.5 c-1.1,1.1-2.3,1.7-3.8,1.7c-0.9,0-1.6-0.2-2.1-0.7c-0.5-0.5-0.8-1.1-0.8-2v-1c0-0.7,0.2-1.3,0.7-1.7c0.5-0.4,1.1-0.6,2-0.6h3.8 v-0.7c0-0.6-0.1-1-0.4-1.2c-0.3-0.2-0.8-0.3-1.5-0.3C168.3,54.3,167,54.4,165,54.5z M166.3,59.2v0.5c0,0.5,0.1,0.8,0.3,1 c0.2,0.2,0.6,0.3,1,0.3c1.1,0,2.2-0.4,3.2-1.3V58h-3.5c-0.4,0-0.7,0.1-0.9,0.3C166.4,58.5,166.3,58.8,166.3,59.2z"></path> <path class="st1" d="M176.2,48.9h0.9c0.4,0,0.5,0.2,0.5,0.5v1.1c0,0.4-0.2,0.6-0.5,0.6h-0.9c-0.4,0-0.5-0.2-0.5-0.6v-1.1 C175.6,49.1,175.8,48.9,176.2,48.9z M177.5,62.4h-1.9V53h1.9V62.4z"></path> <path class="st1" d="M185.8,60.9l0.2,1.5c-0.6,0.2-1.3,0.3-2.2,0.3c-0.8,0-1.4-0.2-1.8-0.7c-0.4-0.5-0.6-1.1-0.6-2v-5.5h-1.7 v-1.4l1.7-0.1v-2.8h1.9V53h2.9v1.5h-2.9v5.3c0,0.4,0.1,0.8,0.3,0.9c0.2,0.2,0.5,0.3,1,0.3H185.8z"></path> <path class="st1" d="M190,48.9v3.7c0,0.6,0,1.3-0.1,1.8c1.5-1.1,2.9-1.6,4.1-1.6c0.8,0,1.5,0.2,1.9,0.7c0.4,0.4,0.7,1.1,0.7,2 v7.1h-1.9v-6.6c0-0.6-0.1-1-0.3-1.2c-0.2-0.2-0.5-0.3-0.9-0.3c-0.5,0-1,0.1-1.5,0.3c-0.5,0.2-1.2,0.6-2,1.1v6.7h-1.9V48.9H190z"></path> <path class="st1" d="M204.2,48.9h0.9c0.4,0,0.5,0.2,0.5,0.5v1.1c0,0.4-0.2,0.6-0.5,0.6h-0.9c-0.4,0-0.5-0.2-0.5-0.6v-1.1 C203.7,49.1,203.9,48.9,204.2,48.9z M205.6,62.4h-1.9V53h1.9V62.4z"></path> <path class="st1" d="M210.2,53l0.1,1.5c1.5-1.1,2.9-1.7,4.2-1.7c0.8,0,1.5,0.2,1.9,0.7c0.4,0.4,0.6,1.1,0.6,2v7.1h-1.9v-6.6 c0-0.6-0.1-1-0.3-1.2c-0.2-0.2-0.5-0.3-0.9-0.3c-0.5,0-1,0.1-1.5,0.3c-0.5,0.2-1.2,0.6-2,1.1v6.7h-1.9V53H210.2z"></path> <path class="st1" d="M226.1,48.9v3.4c0,0.9-0.1,1.6-0.2,2.2c1.1-1.1,2.3-1.7,3.6-1.7c1.2,0,2,0.4,2.6,1.2c0.6,0.8,0.8,2,0.8,3.8 c0,1.7-0.3,3-0.9,3.8c-0.6,0.8-1.7,1.2-3.3,1.2c-1.7,0-3.2-0.2-4.4-0.7V48.9H226.1z M226.1,55.7v5.1c0.8,0.2,1.6,0.3,2.5,0.3 c0.9,0,1.5-0.3,1.8-0.8c0.3-0.5,0.5-1.4,0.5-2.7c0-1.3-0.2-2.1-0.4-2.6c-0.3-0.5-0.9-0.7-1.7-0.7c-0.4,0-0.9,0.1-1.3,0.3 C227.1,54.9,226.6,55.2,226.1,55.7z"></path> <path class="st1" d="M235.4,54.5l-0.2-1.4c1.7-0.3,3.2-0.4,4.6-0.4c1.2,0,2,0.2,2.5,0.7c0.5,0.5,0.8,1.3,0.8,2.4v6.6h-1.5 l-0.2-1.5c-1.1,1.1-2.3,1.7-3.8,1.7c-0.9,0-1.6-0.2-2.1-0.7c-0.5-0.5-0.8-1.1-0.8-2v-1c0-0.7,0.2-1.3,0.7-1.7 c0.5-0.4,1.1-0.6,2-0.6h3.8v-0.7c0-0.6-0.1-1-0.4-1.2c-0.3-0.2-0.8-0.3-1.5-0.3C238.7,54.3,237.4,54.4,235.4,54.5z M236.7,59.2 v0.5c0,0.5,0.1,0.8,0.3,1c0.2,0.2,0.6,0.3,1,0.3c1.1,0,2.2-0.4,3.2-1.3V58h-3.5c-0.4,0-0.7,0.1-0.9,0.3 C236.8,58.5,236.7,58.8,236.7,59.2z"></path> <path class="st1" d="M246.6,48.9h0.9c0.4,0,0.5,0.2,0.5,0.5v1.1c0,0.4-0.2,0.6-0.5,0.6h-0.9c-0.4,0-0.5-0.2-0.5-0.6v-1.1 C246,49.1,246.2,48.9,246.6,48.9z M248,62.4h-1.9V53h1.9V62.4z"></path> <path class="st1" d="M256.2,60.9l0.2,1.5c-0.6,0.2-1.3,0.3-2.2,0.3c-0.8,0-1.4-0.2-1.8-0.7c-0.4-0.5-0.6-1.1-0.6-2v-5.5H250v-1.4 l1.7-0.1v-2.8h1.9V53h2.9v1.5h-2.9v5.3c0,0.4,0.1,0.8,0.3,0.9c0.2,0.2,0.5,0.3,1,0.3H256.2z"></path> </g> </g> </g> </svg> 